<svg width="450" height="85" viewBox="0 0 450 85" fill="none" xmlns="http://www.w3.org/2000/svg">
<path d="M49.1049 14.81C40.6609 14.1605 36.5039 17.5381 36.5039 24.8129V25.4624V68.8516L21.3047 84.5704V25.4624V24.8129C21.3047 8.18471 30.658 -1.03873 49.1049 0.130437V14.81Z" fill="black"/>
<path d="M58.3285 24.1641L43.7789 38.7137H0L14.5497 24.1641H58.3285Z" fill="#00E8B4"/>
<path d="M104.316 25.5918V33.776H92.624V68.851H84.0501V33.776H72.4883V25.5918H104.316Z" fill="black"/>
<path d="M117.695 69.7611C113.149 69.7611 109.251 68.2022 106.134 65.0844C103.016 61.9666 101.457 58.0694 101.457 53.5227C101.457 48.9759 103.016 45.0787 106.134 41.9609C109.251 38.8431 113.149 37.1543 117.695 37.1543C122.242 37.1543 126.139 38.7132 129.257 41.9609C132.375 45.0787 134.064 48.9759 134.064 53.5227C134.064 58.0694 132.505 61.9666 129.257 65.0844C126.269 68.2022 122.372 69.7611 117.695 69.7611ZM117.695 61.9667C120.164 61.9667 122.112 61.1872 123.671 59.4984C125.23 57.9395 126.139 55.861 126.139 53.3927C126.139 50.9245 125.36 48.846 123.671 47.2871C122.112 45.7282 120.034 44.8188 117.695 44.8188C115.357 44.8188 113.279 45.5983 111.72 47.2871C110.161 48.846 109.381 50.9245 109.381 53.3927C109.381 55.861 110.161 57.9395 111.72 59.4984C113.409 61.1872 115.357 61.9667 117.695 61.9667Z" fill="black"/>
<path d="M185.638 49.8852V68.9817H177.713V50.4049C177.713 46.6376 175.765 44.559 172.517 44.559C168.88 44.559 166.801 47.0273 166.801 51.574V68.9817H158.877V50.4049C158.877 46.6376 156.928 44.559 153.68 44.559C150.173 44.559 147.835 47.0273 147.835 51.574V68.9817H139.91V38.0636H147.835V41.3113C149.653 38.5833 152.511 37.1543 156.408 37.1543C160.176 37.1543 163.034 38.5833 164.852 41.5712C166.931 38.5833 169.919 37.1543 174.076 37.1543C181.091 37.1543 185.638 42.0908 185.638 49.8852Z" fill="black"/>
<path d="M207.072 69.7611C202.526 69.7611 198.628 68.2022 195.511 65.0844C192.393 61.9666 190.834 58.0694 190.834 53.5227C190.834 48.9759 192.393 45.0787 195.511 41.9609C198.628 38.8431 202.526 37.1543 207.072 37.1543C211.619 37.1543 215.516 38.7132 218.634 41.9609C221.752 45.0787 223.441 48.9759 223.441 53.5227C223.441 58.0694 221.882 61.9666 218.634 65.0844C215.646 68.2022 211.749 69.7611 207.072 69.7611ZM207.072 61.9667C209.541 61.9667 211.489 61.1872 213.048 59.4984C214.607 57.8096 215.516 55.861 215.516 53.3927C215.516 50.9245 214.737 48.846 213.048 47.2871C211.489 45.7282 209.411 44.8188 207.072 44.8188C204.604 44.8188 202.656 45.5983 201.097 47.2871C199.538 48.846 198.758 50.9245 198.758 53.3927C198.758 55.861 199.538 57.9395 201.097 59.4984C202.785 61.1872 204.734 61.9667 207.072 61.9667Z" fill="black"/>
<path d="M255.399 33.776H238.121V44.0387H254.879V52.2229H238.121V68.851H229.547V25.5918H255.399V33.776Z" fill="black"/>
<path d="M260.334 30.5292C260.334 27.9311 262.542 25.7227 265.27 25.7227C267.999 25.7227 270.207 27.9311 270.207 30.5292C270.207 33.1274 267.999 35.3358 265.27 35.3358C262.542 35.3358 260.334 33.1274 260.334 30.5292ZM261.243 68.9819V38.0639H269.168V68.9819H261.243Z" fill="black"/>
<path d="M302.035 40.5309C304.244 42.8692 305.413 45.8571 305.413 49.8843V68.8508H297.488V50.9235C297.488 46.7665 295.02 44.558 291.383 44.558C287.226 44.558 284.627 47.1562 284.627 52.2226V68.8508H276.703V38.0627H284.627V41.5702C286.576 38.7122 289.694 37.2832 293.851 37.2832C297.099 37.1533 299.827 38.3225 302.035 40.5309Z" fill="black"/>
<path d="M335.681 38.0626H343.605V68.9807H335.681V65.3432C333.212 68.3311 329.965 69.89 325.548 69.89C321.391 69.89 317.883 68.3311 314.895 65.2133C312.037 62.0956 310.479 58.1983 310.479 53.6516C310.479 49.1048 311.907 45.2076 314.895 42.0898C317.883 38.972 321.391 37.2832 325.548 37.2832C329.835 37.2832 333.212 38.7122 335.681 41.83V38.0626ZM327.107 62.2255C329.575 62.2255 331.653 61.446 333.212 59.7572C334.901 58.0684 335.681 55.9899 335.681 53.3917C335.681 50.7936 334.901 48.7151 333.212 47.1562C331.653 45.4674 329.575 44.6879 327.107 44.6879C324.638 44.6879 322.56 45.4674 321.001 47.1562C319.442 48.7151 318.533 50.9235 318.533 53.3917C318.533 55.86 319.312 58.0684 321.001 59.7572C322.56 61.3161 324.638 62.2255 327.107 62.2255Z" fill="black"/>
<path d="M376.342 40.5309C378.55 42.8692 379.719 45.8571 379.719 49.8843V68.8508H371.795V50.9235C371.795 46.7665 369.327 44.558 365.689 44.558C361.532 44.558 358.934 47.1562 358.934 52.2226V68.8508H351.01V38.0627H358.934V41.5702C360.883 38.7122 364 37.2832 368.158 37.2832C371.405 37.1533 374.263 38.3225 376.342 40.5309Z" fill="black"/>
<path d="M389.593 65.0834C386.475 61.9656 384.916 58.0684 384.916 53.5217C384.916 48.845 386.475 45.0777 389.593 41.9599C392.71 38.8421 396.608 37.2832 401.284 37.2832C407.26 37.2832 412.586 40.401 415.185 45.2076L408.299 49.2347C407 46.6366 404.402 45.0777 401.284 45.0777C396.478 45.0777 392.97 48.5852 392.97 53.5217C392.97 55.9899 393.75 57.9385 395.309 59.6273C396.868 61.1862 398.816 61.9656 401.284 61.9656C404.532 61.9656 407.13 60.4068 408.429 57.9385L415.314 61.8357C412.586 66.7722 407.39 69.89 401.284 69.89C396.608 69.7601 392.71 68.2012 389.593 65.0834Z" fill="black"/>
<path d="M426.357 56.7693C427.396 60.6666 430.254 62.6152 435.061 62.6152C438.049 62.6152 440.387 61.5759 441.946 59.4974L448.311 63.2647C445.324 67.6816 440.777 69.89 434.801 69.89C429.735 69.89 425.578 68.3311 422.46 65.2133C419.342 62.0956 417.783 58.1983 417.783 53.5217C417.783 48.845 419.342 44.9477 422.33 41.9599C425.318 38.8421 429.345 37.2832 434.022 37.2832C438.568 37.2832 442.336 38.8421 445.194 41.9599C448.182 45.0777 449.611 48.9749 449.611 53.5217C449.611 54.5609 449.481 55.6002 449.351 56.7693H426.357ZM442.076 50.5338C441.167 46.3767 438.049 44.2982 434.411 44.2982C430.124 44.2982 427.266 46.6366 426.357 50.5338H442.076Z" fill="black"/>
</svg>
