<svg width="24" height="24" viewBox="0 0 24 24" fill="none" xmlns="http://www.w3.org/2000/svg">
<g clip-path="url(#clip0)">
<path d="M9.014 0H2.2065C0.987884 0 0 0.987884 0 2.2065V9.014C0 10.2326 0.987884 11.2205 2.2065 11.2205H9.014C10.2326 11.2205 11.2205 10.2326 11.2205 9.014V2.2065C11.2205 0.987884 10.2326 0 9.014 0Z" fill="url(#paint0_linear)"/>
<path d="M18.3898 0H18.3893C15.291 0 12.7793 2.51168 12.7793 5.61V5.6105C12.7793 8.70882 15.291 11.2205 18.3893 11.2205H18.3898C21.4881 11.2205 23.9998 8.70882 23.9998 5.6105V5.61C23.9998 2.51168 21.4881 0 18.3898 0Z" fill="url(#paint1_linear)"/>
<path d="M5.6105 12.7797H5.61C2.51168 12.7797 0 15.2914 0 18.3897V18.3902C0 21.4885 2.51168 24.0002 5.61 24.0002H5.6105C8.70882 24.0002 11.2205 21.4885 11.2205 18.3902V18.3897C11.2205 15.2914 8.70882 12.7797 5.6105 12.7797Z" fill="url(#paint2_linear)"/>
<path d="M21.5483 12.7797H15.2308C13.8769 12.7797 12.7793 13.8773 12.7793 15.2312V21.5487C12.7793 22.9026 13.8769 24.0002 15.2308 24.0002H21.5483C22.9022 24.0002 23.9998 22.9026 23.9998 21.5487V15.2312C23.9998 13.8773 22.9022 12.7797 21.5483 12.7797Z" fill="url(#paint3_linear)"/>
<path d="M5.3667 2.58301H6.4002V8.60651H5.2117V3.83951L4.0757 4.15801L3.7832 3.14251L5.3667 2.58301Z" fill="white"/>
<path d="M3.80648 20.8095C3.35472 20.1375 3.13136 19.3379 3.16948 18.529C3.13007 17.7228 3.35363 16.9257 3.80648 16.2575C4.00847 15.9795 4.27587 15.7555 4.58503 15.6054C4.89419 15.4553 5.23557 15.3837 5.57898 15.397C5.92234 15.3822 6.26399 15.453 6.5731 15.6033C6.8822 15.7535 7.14903 15.9784 7.34948 16.2575C7.80234 16.9257 8.02589 17.7228 7.98648 18.529C8.02461 19.3379 7.80125 20.1375 7.34948 20.8095C7.14677 21.0861 6.87894 21.3084 6.56975 21.4566C6.26056 21.6049 5.91956 21.6746 5.57698 21.6595C5.23501 21.6724 4.89506 21.6017 4.58656 21.4536C4.27805 21.3055 4.0103 21.0844 3.80648 20.8095ZM5.57898 16.55C4.77898 16.55 4.35698 17.247 4.35698 18.529C4.35698 19.811 4.77848 20.5 5.57898 20.5C6.37948 20.5 6.80948 19.803 6.80948 18.5295C6.80948 17.247 6.37898 16.55 5.57898 16.55Z" fill="white"/>
<path d="M18.6498 8.08192C18.6174 8.13912 18.5704 8.18669 18.5136 8.21979C18.4568 8.25289 18.3923 8.27033 18.3265 8.27033C18.2608 8.27033 18.1962 8.25289 18.1395 8.21979C18.0827 8.18669 18.0357 8.13912 18.0033 8.08192L15.6998 4.01942C15.6616 3.9521 15.6453 3.87452 15.6534 3.79752C15.6614 3.72053 15.6933 3.64796 15.7445 3.58997C15.7958 3.53197 15.8639 3.49144 15.9394 3.47404C16.0148 3.45664 16.0938 3.46324 16.1653 3.49292L18.1833 4.32842C18.2742 4.36603 18.3764 4.36603 18.4673 4.32842L20.4848 3.49292C20.5563 3.46341 20.6352 3.45694 20.7105 3.47442C20.7858 3.49189 20.8538 3.53243 20.905 3.59039C20.9562 3.64834 20.988 3.72083 20.996 3.79774C21.0041 3.87464 20.9879 3.95214 20.9498 4.01942L18.6498 8.08192Z" fill="white"/>
<path d="M18.0004 16.15C18.0328 16.0928 18.0798 16.0453 18.1366 16.0122C18.1933 15.9791 18.2579 15.9616 18.3236 15.9616C18.3894 15.9616 18.4539 15.9791 18.5107 16.0122C18.5675 16.0453 18.6145 16.0928 18.6469 16.15L20.9469 20.213C20.9851 20.2803 21.0013 20.3579 20.9933 20.4349C20.9853 20.5119 20.9534 20.5845 20.9021 20.6425C20.8508 20.7005 20.7827 20.741 20.7073 20.7584C20.6319 20.7758 20.5529 20.7692 20.4814 20.7395L18.4634 19.904C18.3724 19.8664 18.2703 19.8664 18.1794 19.904L16.1614 20.7395C16.0899 20.7692 16.0109 20.7758 15.9355 20.7584C15.86 20.741 15.7919 20.7005 15.7406 20.6425C15.6894 20.5845 15.6575 20.5119 15.6495 20.4349C15.6414 20.3579 15.6577 20.2803 15.6959 20.213L18.0004 16.15Z" fill="white"/>
</g>
<defs>
<linearGradient id="paint0_linear" x1="1.155" y1="1.155" x2="9.719" y2="9.719" gradientUnits="userSpaceOnUse">
<stop stop-color="#2AC63A"/>
<stop offset="1" stop-color="#DCFF78"/>
</linearGradient>
<linearGradient id="paint1_linear" x1="14.4223" y1="1.643" x2="22.3568" y2="9.5775" gradientUnits="userSpaceOnUse">
<stop stop-color="#F43F61"/>
<stop offset="1" stop-color="#F38F1F"/>
</linearGradient>
<linearGradient id="paint2_linear" x1="36.8706" y1="336.435" x2="214.929" y2="514.493" gradientUnits="userSpaceOnUse">
<stop stop-color="#F43F61"/>
<stop offset="1" stop-color="#F38F1F"/>
</linearGradient>
<linearGradient id="paint3_linear" x1="357.092" y1="357.092" x2="502.969" y2="502.97" gradientUnits="userSpaceOnUse">
<stop stop-color="#2AC63A"/>
<stop offset="1" stop-color="#DCFF78"/>
</linearGradient>
<clipPath id="clip0">
<rect width="24" height="24" fill="white"/>
</clipPath>
</defs>
</svg>
