<svg width="26" height="32" viewBox="0 0 26 32" fill="none" xmlns="http://www.w3.org/2000/svg">
<path d="M16.789 25.0454L16.7968 22.2232L12.7408 19.8814C12.6823 19.8475 12.6242 19.812 12.5664 19.7748L12.5571 19.7691C12.5013 19.7336 12.4459 19.6981 12.3905 19.6583C12.3713 19.6451 12.3524 19.6312 12.3332 19.6177C12.2977 19.5918 12.26 19.5655 12.2238 19.5385C12.201 19.5214 12.1787 19.503 12.1563 19.487C12.1232 19.4617 12.0905 19.4362 12.0582 19.4099C12.0345 19.3904 12.0108 19.3708 11.9871 19.3509C11.9559 19.325 11.9247 19.2988 11.8937 19.272C11.87 19.2509 11.8463 19.2297 11.8226 19.2084C11.792 19.1814 11.7617 19.1539 11.7316 19.1259C11.7075 19.1035 11.6833 19.0815 11.6606 19.0588C11.63 19.0296 11.5998 19.0001 11.5696 18.9706C11.5476 18.949 11.5252 18.9273 11.5031 18.9053C11.4715 18.8733 11.4402 18.8409 11.409 18.8082C11.3891 18.7873 11.3688 18.7667 11.3493 18.7457C11.3137 18.7066 11.2782 18.6668 11.2409 18.6267L11.2007 18.5822C11.1515 18.5263 11.1029 18.4696 11.055 18.412C11.044 18.3989 11.0337 18.3854 11.0227 18.3722C10.9872 18.3271 10.9488 18.2816 10.9125 18.2358C10.8687 18.1799 10.8256 18.1232 10.7832 18.0659L10.7615 18.0375C10.6926 17.944 10.6258 17.8481 10.5604 17.7511L10.5248 17.6978C10.4426 17.5741 10.3636 17.4483 10.2878 17.3204L10.2587 17.2717C10.2059 17.1812 10.1546 17.0898 10.1048 16.9974C10.0867 16.9636 10.0693 16.9298 10.0519 16.8961C10.0345 16.8623 10.0163 16.825 9.99644 16.7895C9.97121 16.739 9.94669 16.6886 9.92217 16.6377C9.91435 16.6214 9.90618 16.6051 9.89836 16.5887C9.86756 16.5231 9.83759 16.4571 9.80845 16.3908C9.80099 16.3734 9.79353 16.3552 9.78642 16.3389C9.7651 16.2896 9.74425 16.2401 9.72388 16.1904L9.69652 16.1225C9.6778 16.0751 9.65944 16.0277 9.64144 15.9803C9.63362 15.9597 9.6258 15.9388 9.61798 15.9182C9.59595 15.8577 9.57463 15.7972 9.55402 15.7366L9.54585 15.7131C9.52216 15.6449 9.50036 15.5767 9.48046 15.5084C9.47371 15.4868 9.46767 15.4651 9.46163 15.4434C9.44777 15.3958 9.43391 15.3482 9.42112 15.3013C9.41401 15.2753 9.40726 15.2494 9.40051 15.2234C9.38914 15.1794 9.37812 15.1354 9.36746 15.0916C9.3613 15.0655 9.35526 15.0395 9.34934 15.0134C9.33903 14.9683 9.32944 14.9232 9.3202 14.8784C9.31522 14.8546 9.31025 14.8304 9.30563 14.8073C9.29449 14.7495 9.28419 14.6919 9.27471 14.6346C9.27471 14.6247 9.27116 14.6147 9.26974 14.6048C9.25908 14.5375 9.2496 14.4703 9.24131 14.4033C9.23918 14.3852 9.2374 14.3677 9.23527 14.3489C9.22982 14.3003 9.22484 14.2519 9.22034 14.2036C9.21821 14.1808 9.21679 14.1581 9.21501 14.1357C9.21146 14.0902 9.20897 14.0451 9.20684 14C9.20684 13.9786 9.20471 13.957 9.204 13.9356C9.20186 13.8717 9.20009 13.8081 9.20044 13.7452L9.21181 9.40985L8.85646 9.20516L7.03598 8.15545C6.66252 7.93121 6.25107 7.7774 5.8221 7.70166V7.70415C5.81925 7.72618 5.81748 7.74928 5.81499 7.77131C5.8125 7.79334 5.80966 7.81964 5.80753 7.84451C5.80753 7.85482 5.80539 7.86441 5.80433 7.87472C5.80148 7.90741 5.80006 7.94081 5.79829 7.97422C5.79829 7.99234 5.7958 8.00975 5.79509 8.02859V8.04173C5.79272 8.09788 5.79142 8.15485 5.79118 8.21266V8.22296L5.77057 15.7348C5.77057 15.7879 5.77128 15.841 5.7727 15.8943C5.7727 15.9046 5.7727 15.9146 5.7727 15.9249C5.7727 15.9466 5.77483 15.9686 5.7759 15.9903C5.77696 16.012 5.77768 16.0404 5.77945 16.0656C5.77945 16.0852 5.78265 16.1051 5.78407 16.125C5.78549 16.1449 5.78763 16.1708 5.78976 16.1939C5.78976 16.2085 5.79189 16.2234 5.79331 16.238C5.79651 16.271 5.80077 16.3044 5.80433 16.3378C5.80646 16.3563 5.80824 16.3734 5.81037 16.3936L5.8125 16.4114C5.82008 16.4706 5.82849 16.5298 5.83773 16.5891V16.594C5.83773 16.604 5.84128 16.6143 5.84306 16.6242C5.85088 16.6722 5.85905 16.7202 5.86794 16.7685C5.86971 16.7778 5.87184 16.787 5.87362 16.7962C5.87824 16.8204 5.88357 16.8446 5.88855 16.8673C5.89352 16.89 5.89956 16.9238 5.9056 16.9519C5.90916 16.9686 5.91342 16.9853 5.91733 17.0016C5.92325 17.0274 5.92929 17.0534 5.93545 17.0794C5.94007 17.099 5.94434 17.1185 5.94896 17.1377C5.95358 17.1569 5.9621 17.1871 5.9685 17.2116C5.9749 17.2362 5.982 17.2635 5.98876 17.2891C5.99231 17.3015 5.99515 17.314 5.99835 17.3246C6.00794 17.3602 6.01861 17.3957 6.02927 17.4312C6.03566 17.4529 6.0417 17.4746 6.0481 17.4963L6.05308 17.514C6.07179 17.5754 6.09145 17.6368 6.11206 17.6981V17.7013L6.12024 17.7248C6.13765 17.7763 6.15577 17.8278 6.17425 17.8793C6.17745 17.8882 6.181 17.8971 6.1842 17.906C6.19166 17.9266 6.19948 17.9469 6.2073 17.9675C6.21796 17.9963 6.22862 18.0247 6.23964 18.0535C6.2471 18.0727 6.25492 18.0915 6.26273 18.1107L6.28974 18.1778C6.29649 18.1938 6.30253 18.2102 6.30928 18.2262C6.32314 18.2596 6.33771 18.293 6.35228 18.3264C6.35974 18.3438 6.36685 18.3619 6.37467 18.3783L6.38249 18.3964C6.40807 18.454 6.43425 18.5114 6.46102 18.5687L6.46457 18.5766C6.47239 18.5929 6.48057 18.6092 6.48838 18.6256C6.50935 18.6693 6.52996 18.7134 6.55164 18.7567L6.5623 18.7773C6.58042 18.8129 6.59783 18.8484 6.61773 18.8839C6.63266 18.9127 6.64687 18.9415 6.66215 18.9699L6.67068 18.9852C6.72019 19.0776 6.77148 19.169 6.82455 19.2595C6.82917 19.2674 6.83308 19.2752 6.8377 19.283C6.84232 19.2908 6.84871 19.2997 6.85369 19.3082C6.9295 19.4362 7.0085 19.562 7.09071 19.6856C7.09533 19.6924 7.09924 19.6995 7.10386 19.7066C7.10848 19.7137 7.11949 19.7283 7.12695 19.7396C7.19234 19.8363 7.25879 19.9322 7.32808 20.0257L7.34834 20.052C7.39098 20.1093 7.43422 20.1662 7.47804 20.2226L7.48551 20.2321C7.52104 20.2755 7.55444 20.3181 7.58927 20.3604L7.62018 20.3985L7.62267 20.4013C7.66792 20.4558 7.71376 20.5094 7.76019 20.5623L7.76588 20.5687L7.80603 20.6131C7.83659 20.6486 7.86751 20.682 7.89843 20.7158L7.91442 20.7325C7.93432 20.7535 7.95422 20.7741 7.97412 20.795C7.99402 20.816 8.02031 20.8441 8.04519 20.8682L8.06935 20.8924C8.09138 20.9144 8.11342 20.9361 8.1358 20.9578C8.15819 20.9795 8.17489 20.9972 8.19479 21.0161L8.22677 21.0459C8.25058 21.0687 8.27475 21.091 8.29784 21.1131C8.31526 21.1291 8.33338 21.1454 8.34973 21.161L8.38881 21.1966L8.45989 21.2602C8.47517 21.2733 8.49009 21.2872 8.50573 21.3C8.52136 21.3128 8.53771 21.3259 8.55334 21.3387L8.62441 21.3977C8.63721 21.408 8.64964 21.4187 8.66244 21.429C8.68234 21.4446 8.70259 21.4595 8.72249 21.4748C8.74239 21.4901 8.76727 21.5104 8.78965 21.526L8.81773 21.5473C8.84473 21.5672 8.87245 21.586 8.89946 21.6056C8.91829 21.6191 8.93713 21.633 8.95632 21.6461L8.97159 21.6571C9.02134 21.6912 9.07145 21.7244 9.12191 21.7566L9.12973 21.7616C9.17628 21.7911 9.22319 21.8199 9.27187 21.8476L9.3074 21.8678L15.5417 25.4686C15.5794 25.4904 15.6169 25.5114 15.6544 25.5315L15.6977 25.5539L15.7549 25.5834C15.7699 25.5909 15.7848 25.5991 15.7994 25.6065C15.8235 25.6186 15.8477 25.6293 15.8704 25.6421L15.9209 25.6659L15.9411 25.6755C15.9885 25.6968 16.0359 25.7168 16.0833 25.7355L16.089 25.7376C16.1347 25.7559 16.1802 25.7729 16.2254 25.7888L16.2446 25.7952L16.2969 25.8123C16.3203 25.8201 16.3441 25.8283 16.3679 25.8354L16.4035 25.8457L16.4664 25.8631C16.482 25.8673 16.498 25.8723 16.5133 25.8762C16.5285 25.8801 16.5488 25.8837 16.5648 25.8876L16.6273 25.9015L16.659 25.9086L16.6906 25.9139C16.714 25.813 16.7336 25.7085 16.7485 25.5994C16.7742 25.4158 16.7877 25.2308 16.789 25.0454Z" fill="url(#paint0_linear)"/>
<path d="M13.2764 7.78667L8.97272 5.30168L8.27445 4.89836L7.04848 4.19049C3.18614 1.961 0.0330848 3.75803 0.0202921 8.19604L3.69092e-05 15.3511C-0.0124005 19.793 3.12004 25.2164 6.98238 27.4463L13.2103 31.0417C17.0723 33.2716 20.2257 31.476 20.2381 27.0365L20.247 23.8874V23.606L20.2577 19.8801C20.2712 15.4424 17.1384 10.0165 13.2764 7.78667ZM16.7976 22.0719V22.2219L16.7898 25.0441C16.7895 25.229 16.777 25.4137 16.7525 25.597C16.7376 25.7061 16.7169 25.8102 16.6946 25.9115C16.3246 27.5106 14.9068 28.0493 13.2224 27.0771L6.99375 23.4826C5.03362 22.3516 3.44413 19.5979 3.45052 17.3443L3.47078 10.1878C3.4754 8.57982 4.29235 7.65555 5.47284 7.67012C5.59036 7.67221 5.70757 7.68278 5.82357 7.70174C6.25206 7.77765 6.66301 7.93146 7.03604 8.15553L8.85439 9.20347L9.20974 9.40815L13.2657 11.7499C15.2252 12.8828 16.8157 15.6354 16.8083 17.889L16.7976 22.0719Z" fill="url(#paint1_linear)"/>
<path d="M25.634 16.3331C25.634 16.3129 25.6319 16.2923 25.6312 16.272C25.6312 16.2301 25.6273 16.1878 25.6252 16.1459C25.6227 16.0957 25.6213 16.0464 25.6181 15.9959C25.6156 15.9568 25.6117 15.917 25.6085 15.8776C25.6053 15.8381 25.6017 15.7887 25.5978 15.7439C25.5953 15.7148 25.5935 15.6857 25.5907 15.6565C25.5843 15.5904 25.5761 15.524 25.5687 15.4579C25.5644 15.4224 25.5612 15.3868 25.5566 15.3513C25.5566 15.3396 25.5541 15.3278 25.5527 15.3157C25.538 15.1992 25.5213 15.0822 25.5026 14.9647L25.5008 14.9544C25.4976 14.9341 25.4937 14.9138 25.4901 14.8936C25.4748 14.7998 25.4592 14.706 25.4414 14.6118C25.4379 14.593 25.4336 14.5745 25.4301 14.5556C25.4208 14.5084 25.4109 14.4611 25.4013 14.4135C25.3899 14.3577 25.3796 14.3023 25.3657 14.2468C25.3586 14.2138 25.3501 14.1807 25.3427 14.1477C25.331 14.0965 25.3192 14.0454 25.3071 13.9942C25.2979 13.9562 25.2901 13.9181 25.2805 13.8801C25.2684 13.8314 25.2545 13.7824 25.2421 13.7334C25.2296 13.6843 25.2158 13.6317 25.2019 13.5809C25.1955 13.5567 25.1895 13.5326 25.1827 13.5098C25.1632 13.4388 25.1419 13.3698 25.1213 13.2998C25.1088 13.2579 25.0971 13.2156 25.0857 13.1737C25.0822 13.1623 25.0793 13.1509 25.0758 13.1381C25.0386 13.0171 24.9999 12.8961 24.9596 12.7753L24.9571 12.7682C24.9514 12.7515 24.9454 12.7352 24.9397 12.7185C24.9041 12.6183 24.8711 12.5177 24.8331 12.4175C24.8267 12.3997 24.8196 12.3819 24.8132 12.3642C24.7982 12.3233 24.7826 12.2824 24.767 12.2416C24.746 12.1858 24.7258 12.13 24.7041 12.0742C24.6895 12.0365 24.6739 11.9992 24.6586 11.9616C24.6408 11.917 24.6229 11.8726 24.6049 11.8283C24.5921 11.7967 24.5801 11.7651 24.5669 11.7338C24.5392 11.6673 24.5104 11.6016 24.482 11.5355C24.4674 11.5 24.4532 11.4676 24.4383 11.4335L24.4233 11.398C24.3731 11.2845 24.3216 11.1714 24.2688 11.0586L24.2617 11.0437C24.2457 11.0081 24.2286 10.9762 24.2126 10.9421C24.1721 10.8571 24.1316 10.7722 24.0897 10.688C24.0829 10.6745 24.0755 10.661 24.0687 10.6471C24.0332 10.576 23.9976 10.505 23.9596 10.436C23.9305 10.3795 23.902 10.323 23.8722 10.2669C23.8665 10.2566 23.8605 10.2466 23.8548 10.236C23.7572 10.0543 23.6561 9.87422 23.5517 9.69583C23.5428 9.68055 23.535 9.66527 23.5261 9.64999C23.4998 9.60521 23.4721 9.5615 23.4454 9.51708C23.4006 9.44282 23.3562 9.36855 23.3104 9.29499C23.2706 9.23102 23.2301 9.16777 23.1896 9.10452C23.143 9.03345 23.0968 8.95989 23.0492 8.88811C23.0332 8.86359 23.0179 8.83871 23.0016 8.81455C22.9852 8.79039 22.9707 8.77155 22.9557 8.74952C22.8267 8.5587 22.6956 8.37 22.5599 8.18557L22.5581 8.18273C22.545 8.16461 22.5307 8.1472 22.5176 8.12943C22.4337 8.01666 22.3487 7.90508 22.2624 7.79468L22.2475 7.77514C22.18 7.6895 22.1111 7.60564 22.0425 7.52142C22.0222 7.4969 22.0027 7.47167 21.9824 7.44715L21.9778 7.44146C21.8887 7.33438 21.7985 7.22872 21.707 7.12449L21.6953 7.1117C21.6694 7.08185 21.6424 7.05342 21.6161 7.02392C21.5556 6.95641 21.4952 6.88818 21.4338 6.82208L21.4025 6.78939C21.3634 6.74746 21.3236 6.70659 21.2838 6.66502C21.2383 6.6174 21.1932 6.56871 21.147 6.52287C21.1314 6.50688 21.115 6.4916 21.099 6.47561C21.0557 6.4319 21.012 6.38926 20.9682 6.34626C20.9245 6.30327 20.8911 6.2688 20.852 6.23113C20.8311 6.21123 20.8098 6.19204 20.7888 6.17214C20.7415 6.12737 20.6939 6.0833 20.6467 6.03959C20.6111 6.00832 20.5791 5.97598 20.545 5.94507C20.5198 5.92233 20.4938 5.90065 20.4683 5.87791C20.4209 5.8355 20.3729 5.79357 20.3243 5.75211C20.2941 5.72617 20.2646 5.69916 20.2341 5.67358C20.2035 5.64799 20.1712 5.62276 20.1399 5.59682C20.0925 5.55797 20.0452 5.51947 19.9978 5.48133C19.9725 5.46108 19.9477 5.43976 19.9221 5.4195C19.8826 5.38858 19.8428 5.35945 19.8034 5.32889C19.764 5.29833 19.7153 5.26101 19.6712 5.22796C19.6527 5.21411 19.6357 5.19954 19.6158 5.18568C19.5621 5.14623 19.5092 5.10892 19.4537 5.07054C19.4182 5.04425 19.3798 5.01724 19.3425 4.99165L19.3119 4.96998C19.2139 4.9027 19.1152 4.83743 19.0159 4.77418H19.0138L18.9989 4.76494C18.9068 4.70666 18.8141 4.64945 18.721 4.59472L18.6524 4.55492L12.428 0.959455C12.3539 0.916576 12.28 0.875236 12.2063 0.835437C12.1779 0.820157 12.1498 0.806298 12.1214 0.791373L12.008 0.73274C11.9789 0.717815 11.9494 0.701824 11.9206 0.687254C11.8726 0.663445 11.8253 0.64248 11.7784 0.620092C11.745 0.604457 11.712 0.588111 11.6789 0.573186L11.6388 0.554352C11.544 0.51242 11.4509 0.472976 11.3595 0.436019L11.3453 0.430689C11.2561 0.395153 11.1676 0.36175 11.0791 0.330479L11.0386 0.315554C11.0031 0.303827 10.9704 0.293167 10.9363 0.282151C10.8897 0.266871 10.8431 0.250524 10.797 0.236666C10.7724 0.229203 10.7483 0.223518 10.7238 0.21641C10.6825 0.204328 10.6417 0.193312 10.6004 0.180875C10.5695 0.172702 10.5383 0.162752 10.5077 0.15529C10.4771 0.147827 10.4405 0.142142 10.4064 0.134324C10.3656 0.125085 10.3243 0.11549 10.2838 0.106606C10.2632 0.102342 10.2419 0.0966562 10.2213 0.0927473C10.1818 0.0849296 10.1435 0.0803099 10.104 0.0735582C10.0568 0.0653851 10.0091 0.0568566 9.96187 0.0501049C9.94659 0.0483281 9.93024 0.0447746 9.91461 0.0426425C9.87481 0.0355354 9.83572 0.0355354 9.79628 0.0305604C9.74582 0.0248748 9.69536 0.0191891 9.64561 0.0152802C9.63175 0.0152802 9.61718 0.012082 9.60332 0.011016C9.56778 0.00852849 9.53545 0.0092392 9.50098 0.00746243C9.44092 0.0046196 9.38158 0.00213212 9.32188 0C9.30589 0 9.28954 0 9.27355 0C9.24761 0 9.22274 0.00319818 9.19679 0.00355354C9.12217 0.00355354 9.04826 0.00852849 8.97541 0.0138588C8.95373 0.0138588 8.93135 0.0138588 8.91002 0.017057C8.8784 0.0198998 8.84784 0.0245194 8.81657 0.0280729L8.74905 0.0355354C8.66696 0.0465513 8.58559 0.0589887 8.50563 0.075335L8.49675 0.0781778C8.47294 0.0831528 8.44984 0.0895491 8.42568 0.0948795C8.36065 0.109449 8.29597 0.124729 8.23272 0.142497C8.20038 0.151736 8.16911 0.162397 8.13713 0.172702C8.09626 0.185495 8.05469 0.196866 8.01418 0.211436C8.00352 0.214989 7.99357 0.220319 7.98326 0.223873C7.92001 0.246971 7.85889 0.272912 7.79741 0.299563C7.76756 0.312356 7.737 0.324083 7.70786 0.337586C7.61831 0.379518 7.53019 0.424648 7.44526 0.474042L4.01787 2.46402C4.10315 2.41463 4.19093 2.3695 4.28012 2.32757C4.30961 2.31371 4.34017 2.30234 4.37002 2.28919C4.43114 2.26254 4.49262 2.2366 4.55552 2.2135C4.60598 2.19502 4.6575 2.17796 4.70939 2.16233C4.74137 2.15238 4.77264 2.14136 4.80498 2.13212C4.86823 2.11435 4.93326 2.09907 4.99793 2.08451C5.02139 2.07917 5.04449 2.07278 5.069 2.0678C5.1518 2.0511 5.23602 2.0376 5.32131 2.02623C5.34369 2.02338 5.36644 2.0209 5.38882 2.01841C5.44142 2.01237 5.49543 2.0081 5.54767 2.0042C5.62051 1.99851 5.69443 1.99531 5.76905 1.99353C5.81063 1.99353 5.85185 1.99105 5.89378 1.9914C5.95277 1.9914 6.01282 1.9946 6.07146 1.99744C6.11943 1.99958 6.1674 2.00135 6.21609 2.00526C6.26477 2.00917 6.3163 2.01521 6.36676 2.02054C6.41722 2.02587 6.47692 2.03262 6.53306 2.04044C6.57997 2.04719 6.62723 2.05572 6.6752 2.06389C6.7349 2.0742 6.7946 2.08451 6.85501 2.0973C6.89552 2.10583 6.93674 2.11507 6.97761 2.12466C7.04205 2.13959 7.10684 2.15569 7.17199 2.17299C7.21285 2.184 7.25408 2.19502 7.29494 2.20852C7.36601 2.22878 7.43708 2.25117 7.50815 2.27426C7.54369 2.28528 7.57603 2.29594 7.61014 2.30767C7.71106 2.3432 7.81234 2.37874 7.91468 2.42031L7.92889 2.42564C8.0355 2.46829 8.1421 2.51484 8.24871 2.56352C8.28176 2.57845 8.31481 2.59479 8.34821 2.61043C8.42473 2.64644 8.5016 2.68399 8.57884 2.72308C8.6165 2.74226 8.65429 2.76181 8.69219 2.78171C8.79382 2.83537 8.89581 2.89009 8.99851 2.94944L15.2286 6.54526C15.3444 6.61207 15.4596 6.68184 15.574 6.75456L15.5903 6.76451C15.7005 6.83559 15.8099 6.90666 15.9187 6.98306C15.956 7.009 15.9929 7.03601 16.0299 7.0623C16.101 7.11383 16.1752 7.16606 16.2474 7.21972C16.2914 7.25277 16.3351 7.28653 16.3792 7.32029C16.4444 7.37027 16.5093 7.42121 16.5739 7.47309C16.6213 7.51099 16.6687 7.54937 16.7161 7.58822C16.7779 7.6394 16.8394 7.69128 16.9005 7.74387C16.9479 7.78533 16.9953 7.82714 17.0427 7.86931C17.1026 7.92238 17.1618 7.97627 17.2203 8.031C17.2679 8.0747 17.3156 8.11877 17.3625 8.16354C17.4229 8.22075 17.4829 8.27903 17.5426 8.33767C17.586 8.38031 17.6297 8.42295 17.6727 8.4663C17.7349 8.52885 17.796 8.59281 17.8575 8.65677C17.8973 8.69835 17.9371 8.73921 17.9765 8.7815C18.0476 8.85826 18.1187 8.93679 18.1897 9.01533C18.216 9.04482 18.243 9.0736 18.2693 9.10345C18.3662 9.21361 18.4619 9.32555 18.5565 9.43926C18.5767 9.46378 18.5963 9.48901 18.6165 9.51353C18.6904 9.60379 18.7643 9.69441 18.8365 9.7868C18.9227 9.89696 19.0076 10.0085 19.0913 10.1215C19.1051 10.1404 19.1197 10.1571 19.1339 10.1777C19.2697 10.3621 19.4011 10.5508 19.5298 10.7413C19.561 10.7875 19.5927 10.8337 19.6232 10.8802C19.6705 10.9513 19.717 11.0241 19.7636 11.0966C19.8041 11.1599 19.8446 11.2231 19.8844 11.2871C19.9303 11.3607 19.9747 11.4349 20.0195 11.5092C20.055 11.5685 20.0905 11.6279 20.1261 11.6869C20.2303 11.8653 20.3313 12.0454 20.4292 12.2274C20.4647 12.2935 20.5002 12.3599 20.5333 12.426C20.5663 12.4921 20.6072 12.5682 20.6427 12.6392C20.6918 12.7369 20.7398 12.8354 20.7867 12.9338C20.803 12.9693 20.8197 13.0013 20.8357 13.0354C20.8963 13.1646 20.9556 13.2949 21.0134 13.4263C21.0283 13.4619 21.0429 13.4949 21.0574 13.5294C21.0994 13.6265 21.1404 13.724 21.1804 13.8218C21.1986 13.8664 21.2165 13.9108 21.2341 13.9551C21.2712 14.0484 21.3068 14.1419 21.3407 14.2355C21.3559 14.2763 21.3716 14.3172 21.3869 14.3581C21.43 14.4765 21.4715 14.595 21.5116 14.7134C21.5173 14.7298 21.5233 14.7465 21.529 14.7628C21.574 14.8974 21.6169 15.0319 21.6576 15.1665C21.6704 15.2088 21.6822 15.2511 21.6932 15.2934C21.7209 15.3872 21.7479 15.481 21.7731 15.5748C21.787 15.626 21.8001 15.6771 21.8136 15.7287C21.8361 15.8151 21.8577 15.9016 21.8783 15.9881C21.8906 16.0395 21.9025 16.0908 21.9138 16.1419C21.934 16.2305 21.9529 16.3191 21.9707 16.4077C21.9803 16.455 21.9902 16.5023 21.9995 16.5499C22.0213 16.6629 22.0413 16.7755 22.0595 16.8878C22.0627 16.9081 22.067 16.9283 22.0702 16.9486C22.0913 17.0813 22.1099 17.2135 22.126 17.3452C22.1306 17.3807 22.1338 17.4162 22.1381 17.4518C22.149 17.5465 22.1587 17.6419 22.1672 17.7378C22.1711 17.7826 22.1747 17.827 22.1779 17.8715C22.1845 17.961 22.19 18.0502 22.1942 18.139C22.1964 18.1813 22.1985 18.2236 22.2003 18.2659C22.2049 18.3917 22.2077 18.5168 22.2074 18.6411L22.1871 25.7976C22.1871 25.928 22.1832 26.0556 22.1775 26.1814C22.1775 26.2169 22.1729 26.2525 22.1711 26.288C22.1661 26.3744 22.1605 26.46 22.1526 26.5442C22.1484 26.5929 22.143 26.6405 22.1377 26.6885C22.1299 26.7596 22.1217 26.8306 22.1121 26.9017C22.105 26.9529 22.0976 27.003 22.0894 27.0531C22.0792 27.1175 22.0682 27.1811 22.0563 27.2439C22.0457 27.3001 22.0345 27.3556 22.0229 27.4106C22.0113 27.4655 21.9985 27.5213 21.9846 27.5779C21.9689 27.6426 21.9523 27.7063 21.9348 27.7691C21.9209 27.8185 21.9071 27.8676 21.8922 27.9159C21.8691 27.9909 21.8445 28.0641 21.819 28.1366C21.8047 28.1764 21.7912 28.2165 21.7767 28.2556C21.7301 28.3778 21.6807 28.4969 21.6267 28.611C21.5848 28.6998 21.5411 28.7865 21.4949 28.87C21.4899 28.8792 21.4839 28.8878 21.4789 28.897C21.4366 28.9723 21.3929 29.0455 21.3474 29.1166C21.3364 29.1337 21.3247 29.15 21.3119 29.1671C21.2735 29.2247 21.2341 29.2809 21.1935 29.3359C21.1768 29.3583 21.1598 29.3806 21.1427 29.4027C21.1034 29.4534 21.063 29.5027 21.0215 29.5505C21.0063 29.5686 20.991 29.586 20.9754 29.6045C20.9189 29.6678 20.8606 29.7292 20.8005 29.7875C20.7913 29.7964 20.7813 29.8049 20.7721 29.8138C20.7204 29.8629 20.6676 29.9102 20.6136 29.956C20.5937 29.9727 20.5731 29.989 20.5528 30.0054C20.5055 30.043 20.4581 30.0793 20.4107 30.1141C20.3904 30.1287 20.3705 30.1436 20.3499 30.1575C20.2821 30.204 20.2131 30.2488 20.142 30.29L23.5691 28.3C23.6402 28.2588 23.7091 28.214 23.7773 28.1675C23.7979 28.1536 23.8178 28.1387 23.8377 28.1241C23.8863 28.0893 23.9337 28.053 23.9799 28.0154C24.0001 27.999 24.0207 27.9827 24.0406 27.966C24.0949 27.9205 24.148 27.8731 24.1998 27.8238C24.2091 27.8153 24.2187 27.8071 24.2276 27.7983C24.2876 27.74 24.3459 27.6785 24.4024 27.6153C24.418 27.5975 24.4333 27.5797 24.4489 27.5609C24.4902 27.5135 24.5305 27.4642 24.5701 27.4131C24.5872 27.391 24.6056 27.3686 24.6209 27.3463C24.6614 27.2915 24.7008 27.2354 24.7389 27.1778C24.7503 27.1608 24.762 27.1444 24.7744 27.127L24.7851 27.1114C24.827 27.0456 24.8665 26.9774 24.9056 26.9085C24.9109 26.8989 24.9169 26.8903 24.9223 26.8807C24.9668 26.8002 25.0093 26.7173 25.0498 26.632L25.0541 26.6217C25.1081 26.5076 25.1575 26.3886 25.2041 26.2663C25.2083 26.2553 25.2133 26.2454 25.2176 26.2343C25.2279 26.2063 25.2364 26.1761 25.2463 26.1476C25.2719 26.0766 25.2968 26.0016 25.3199 25.9266C25.3263 25.906 25.3338 25.8868 25.3398 25.8662C25.348 25.8385 25.3544 25.8086 25.3622 25.7806C25.3797 25.7175 25.3964 25.6537 25.4123 25.589C25.4187 25.562 25.4269 25.5368 25.4329 25.5094C25.439 25.4821 25.4443 25.4511 25.4503 25.4224C25.4622 25.3672 25.4734 25.3114 25.4841 25.255C25.4898 25.2255 25.4965 25.1971 25.5019 25.1672C25.5072 25.1374 25.5118 25.0986 25.5171 25.0649C25.5249 25.0148 25.5328 24.9643 25.5399 24.9131C25.5434 24.8865 25.5484 24.8609 25.5516 24.8339C25.5569 24.7905 25.5605 24.7454 25.5655 24.7017C25.5704 24.658 25.5761 24.6058 25.5804 24.5567C25.5822 24.5368 25.585 24.5176 25.5864 24.4977C25.5918 24.4338 25.5946 24.3673 25.5985 24.3019C25.6006 24.2664 25.6035 24.2309 25.6053 24.1953C25.6053 24.1864 25.6053 24.1779 25.6053 24.169C25.61 24.0584 25.6126 23.946 25.6131 23.8318V23.8119L25.6333 16.6554C25.6369 16.5457 25.6371 16.4383 25.634 16.3331Z" fill="url(#paint2_linear)"/>
<defs>
<linearGradient id="paint0_linear" x1="5.77057" y1="16.8072" x2="16.7968" y2="16.8072" gradientUnits="userSpaceOnUse">
<stop stop-color="#FFAA55"/>
<stop offset="1" stop-color="#E661C9"/>
</linearGradient>
<linearGradient id="paint1_linear" x1="3.69092e-05" y1="17.6165" x2="20.2588" y2="17.6165" gradientUnits="userSpaceOnUse">
<stop stop-color="#00D2C9"/>
<stop offset="1" stop-color="#E661C9"/>
</linearGradient>
<linearGradient id="paint2_linear" x1="248.478" y1="1290.72" x2="1563.74" y2="1290.72" gradientUnits="userSpaceOnUse">
<stop stop-color="#FFAA55"/>
<stop offset="1" stop-color="#E661C9"/>
</linearGradient>
</defs>
</svg>
